<svg id="visual" viewBox="0 0 900 600" width="900" height="600" xmlns="http://www.w3.org/2000/svg" xmlns:xlink="http://www.w3.org/1999/xlink" version="1.1"><path d="M0 25L13.7 23C27.3 21 54.7 17 82 17C109.3 17 136.7 21 163.8 22C191 23 218 21 245.2 20C272.3 19 299.7 19 327 22C354.3 25 381.7 31 409 31C436.3 31 463.7 25 491 25C518.3 25 545.7 31 573 33C600.3 35 627.7 33 654.8 30C682 27 709 23 736.2 23C763.3 23 790.7 27 818 27C845.3 27 872.7 23 886.3 21L900 19L900 0L886.3 0C872.7 0 845.3 0 818 0C790.7 0 763.3 0 736.2 0C709 0 682 0 654.8 0C627.7 0 600.3 0 573 0C545.7 0 518.3 0 491 0C463.7 0 436.3 0 409 0C381.7 0 354.3 0 327 0C299.7 0 272.3 0 245.2 0C218 0 191 0 163.8 0C136.7 0 109.3 0 82 0C54.7 0 27.3 0 13.7 0L0 0Z" fill="#090d14"></path><path d="M0 169L13.7 174C27.3 179 54.7 189 82 175C109.3 161 136.7 123 163.8 115C191 107 218 129 245.2 128C272.3 127 299.7 103 327 107C354.3 111 381.7 143 409 154C436.3 165 463.7 155 491 144C518.3 133 545.7 121 573 124C600.3 127 627.7 145 654.8 161C682 177 709 191 736.2 182C763.3 173 790.7 141 818 122C845.3 103 872.7 97 886.3 94L900 91L900 17L886.3 19C872.7 21 845.3 25 818 25C790.7 25 763.3 21 736.2 21C709 21 682 25 654.8 28C627.7 31 600.3 33 573 31C545.7 29 518.3 23 491 23C463.7 23 436.3 29 409 29C381.7 29 354.3 23 327 20C299.7 17 272.3 17 245.2 18C218 19 191 21 163.8 20C136.7 19 109.3 15 82 15C54.7 15 27.3 19 13.7 21L0 23Z" fill="#0c0f16"></path><path d="M0 235L13.7 234C27.3 233 54.7 231 82 215C109.3 199 136.7 169 163.8 165C191 161 218 183 245.2 179C272.3 175 299.7 145 327 147C354.3 149 381.7 183 409 192C436.3 201 463.7 185 491 170C518.3 155 545.7 141 573 150C600.3 159 627.7 191 654.8 210C682 229 709 235 736.2 221C763.3 207 790.7 173 818 154C845.3 135 872.7 131 886.3 129L900 127L900 89L886.3 92C872.7 95 845.3 101 818 120C790.7 139 763.3 171 736.2 180C709 189 682 175 654.8 159C627.7 143 600.3 125 573 122C545.7 119 518.3 131 491 142C463.7 153 436.3 163 409 152C381.7 141 354.3 109 327 105C299.7 101 272.3 125 245.2 126C218 127 191 105 163.8 113C136.7 121 109.3 159 82 173C54.7 187 27.3 177 13.7 172L0 167Z" fill="#0e1218"></path><path d="M0 265L13.7 261C27.3 257 54.7 249 82 230C109.3 211 136.7 181 163.8 179C191 177 218 203 245.2 201C272.3 199 299.7 169 327 169C354.3 169 381.7 199 409 208C436.3 217 463.7 205 491 190C518.3 175 545.7 157 573 164C600.3 171 627.7 203 654.8 223C682 243 709 251 736.2 238C763.3 225 790.7 191 818 173C845.3 155 872.7 153 886.3 152L900 151L900 125L886.3 127C872.7 129 845.3 133 818 152C790.7 171 763.3 205 736.2 219C709 233 682 227 654.8 208C627.7 189 600.3 157 573 148C545.7 139 518.3 153 491 168C463.7 183 436.3 199 409 190C381.7 181 354.3 147 327 145C299.7 143 272.3 173 245.2 177C218 181 191 159 163.8 163C136.7 167 109.3 197 82 213C54.7 229 27.3 231 13.7 232L0 233Z" fill="#10141b"></path><path d="M0 361L13.7 354C27.3 347 54.7 333 82 325C109.3 317 136.7 315 163.8 321C191 327 218 341 245.2 338C272.3 335 299.7 315 327 310C354.3 305 381.7 315 409 317C436.3 319 463.7 313 491 307C518.3 301 545.7 295 573 296C600.3 297 627.7 305 654.8 315C682 325 709 337 736.2 339C763.3 341 790.7 333 818 330C845.3 327 872.7 329 886.3 330L900 331L900 149L886.3 150C872.7 151 845.3 153 818 171C790.7 189 763.3 223 736.2 236C709 249 682 241 654.8 221C627.7 201 600.3 169 573 162C545.7 155 518.3 173 491 188C463.7 203 436.3 215 409 206C381.7 197 354.3 167 327 167C299.7 167 272.3 197 245.2 199C218 201 191 175 163.8 177C136.7 179 109.3 209 82 228C54.7 247 27.3 255 13.7 259L0 263Z" fill="#12151d"></path><path d="M0 403L13.7 394C27.3 385 54.7 367 82 356C109.3 345 136.7 341 163.8 344C191 347 218 357 245.2 355C272.3 353 299.7 339 327 337C354.3 335 381.7 345 409 347C436.3 349 463.7 343 491 337C518.3 331 545.7 325 573 328C600.3 331 627.7 343 654.8 352C682 361 709 367 736.2 367C763.3 367 790.7 361 818 356C845.3 351 872.7 347 886.3 345L900 343L900 329L886.3 328C872.7 327 845.3 325 818 328C790.7 331 763.3 339 736.2 337C709 335 682 323 654.8 313C627.7 303 600.3 295 573 294C545.7 293 518.3 299 491 305C463.7 311 436.3 317 409 315C381.7 313 354.3 303 327 308C299.7 313 272.3 333 245.2 336C218 339 191 325 163.8 319C136.7 313 109.3 315 82 323C54.7 331 27.3 345 13.7 352L0 359Z" fill="#13171f"></path><path d="M0 451L13.7 445C27.3 439 54.7 427 82 423C109.3 419 136.7 423 163.8 426C191 429 218 431 245.2 434C272.3 437 299.7 441 327 440C354.3 439 381.7 433 409 434C436.3 435 463.7 443 491 442C518.3 441 545.7 431 573 425C600.3 419 627.7 417 654.8 416C682 415 709 415 736.2 411C763.3 407 790.7 399 818 403C845.3 407 872.7 423 886.3 431L900 439L900 341L886.3 343C872.7 345 845.3 349 818 354C790.7 359 763.3 365 736.2 365C709 365 682 359 654.8 350C627.7 341 600.3 329 573 326C545.7 323 518.3 329 491 335C463.7 341 436.3 347 409 345C381.7 343 354.3 333 327 335C299.7 337 272.3 351 245.2 353C218 355 191 345 163.8 342C136.7 339 109.3 343 82 354C54.7 365 27.3 383 13.7 392L0 401Z" fill="#151921"></path><path d="M0 469L13.7 466C27.3 463 54.7 457 82 458C109.3 459 136.7 467 163.8 471C191 475 218 475 245.2 478C272.3 481 299.7 487 327 484C354.3 481 381.7 469 409 467C436.3 465 463.7 473 491 472C518.3 471 545.7 461 573 457C600.3 453 627.7 455 654.8 456C682 457 709 457 736.2 454C763.3 451 790.7 445 818 447C845.3 449 872.7 459 886.3 464L900 469L900 437L886.3 429C872.7 421 845.3 405 818 401C790.7 397 763.3 405 736.2 409C709 413 682 413 654.8 414C627.7 415 600.3 417 573 423C545.7 429 518.3 439 491 440C463.7 441 436.3 433 409 432C381.7 431 354.3 437 327 438C299.7 439 272.3 435 245.2 432C218 429 191 427 163.8 424C136.7 421 109.3 417 82 421C54.7 425 27.3 437 13.7 443L0 449Z" fill="#161a24"></path><path d="M0 529L13.7 526C27.3 523 54.7 517 82 517C109.3 517 136.7 523 163.8 526C191 529 218 529 245.2 529C272.3 529 299.7 529 327 526C354.3 523 381.7 517 409 518C436.3 519 463.7 527 491 521C518.3 515 545.7 495 573 492C600.3 489 627.7 503 654.8 509C682 515 709 513 736.2 514C763.3 515 790.7 519 818 521C845.3 523 872.7 523 886.3 523L900 523L900 467L886.3 462C872.7 457 845.3 447 818 445C790.7 443 763.3 449 736.2 452C709 455 682 455 654.8 454C627.7 453 600.3 451 573 455C545.7 459 518.3 469 491 470C463.7 471 436.3 463 409 465C381.7 467 354.3 479 327 482C299.7 485 272.3 479 245.2 476C218 473 191 473 163.8 469C136.7 465 109.3 457 82 456C54.7 455 27.3 461 13.7 464L0 467Z" fill="#181c26"></path><path d="M0 547L13.7 545C27.3 543 54.7 539 82 538C109.3 537 136.7 539 163.8 542C191 545 218 549 245.2 549C272.3 549 299.7 545 327 540C354.3 535 381.7 529 409 531C436.3 533 463.7 543 491 541C518.3 539 545.7 525 573 523C600.3 521 627.7 531 654.8 534C682 537 709 533 736.2 532C763.3 531 790.7 533 818 534C845.3 535 872.7 535 886.3 535L900 535L900 521L886.3 521C872.7 521 845.3 521 818 519C790.7 517 763.3 513 736.2 512C709 511 682 513 654.8 507C627.7 501 600.3 487 573 490C545.7 493 518.3 513 491 519C463.7 525 436.3 517 409 516C381.7 515 354.3 521 327 524C299.7 527 272.3 527 245.2 527C218 527 191 527 163.8 524C136.7 521 109.3 515 82 515C54.7 515 27.3 521 13.7 524L0 527Z" fill="#1a1d28"></path><path d="M0 571L13.7 571C27.3 571 54.7 571 82 572C109.3 573 136.7 575 163.8 577C191 579 218 581 245.2 581C272.3 581 299.7 579 327 576C354.3 573 381.7 569 409 570C436.3 571 463.7 577 491 575C518.3 573 545.7 563 573 563C600.3 563 627.7 573 654.8 572C682 571 709 559 736.2 554C763.3 549 790.7 551 818 555C845.3 559 872.7 565 886.3 568L900 571L900 533L886.3 533C872.7 533 845.3 533 818 532C790.7 531 763.3 529 736.2 530C709 531 682 535 654.8 532C627.7 529 600.3 519 573 521C545.7 523 518.3 537 491 539C463.7 541 436.3 531 409 529C381.7 527 354.3 533 327 538C299.7 543 272.3 547 245.2 547C218 547 191 543 163.8 540C136.7 537 109.3 535 82 536C54.7 537 27.3 541 13.7 543L0 545Z" fill="#1c1f2b"></path><path d="M0 601L13.7 601C27.3 601 54.7 601 82 601C109.3 601 136.7 601 163.8 601C191 601 218 601 245.2 601C272.3 601 299.7 601 327 601C354.3 601 381.7 601 409 601C436.3 601 463.7 601 491 601C518.3 601 545.7 601 573 601C600.3 601 627.7 601 654.8 601C682 601 709 601 736.2 601C763.3 601 790.7 601 818 601C845.3 601 872.7 601 886.3 601L900 601L900 569L886.3 566C872.7 563 845.3 557 818 553C790.7 549 763.3 547 736.2 552C709 557 682 569 654.8 570C627.7 571 600.3 561 573 561C545.7 561 518.3 571 491 573C463.7 575 436.3 569 409 568C381.7 567 354.3 571 327 574C299.7 577 272.3 579 245.2 579C218 579 191 577 163.8 575C136.7 573 109.3 571 82 570C54.7 569 27.3 569 13.7 569L0 569Z" fill="#1e202d"></path></svg>