<svg id="visual" viewBox="0 0 960 540" width="960" height="540" xmlns="http://www.w3.org/2000/svg" xmlns:xlink="http://www.w3.org/1999/xlink" version="1.1"><path d="M0 12L14.5 12C29 12 58 12 87.2 12.8C116.3 13.7 145.7 15.3 174.8 17.2C204 19 233 21 262 20.2C291 19.3 320 15.7 349 16.5C378 17.3 407 22.7 436.2 24.5C465.3 26.3 494.7 24.7 523.8 22.8C553 21 582 19 611 19C640 19 669 21 698 21C727 21 756 19 785.2 18C814.3 17 843.7 17 872.8 17C902 17 931 17 945.5 17L960 17L960 0L945.5 0C931 0 902 0 872.8 0C843.7 0 814.3 0 785.2 0C756 0 727 0 698 0C669 0 640 0 611 0C582 0 553 0 523.8 0C494.7 0 465.3 0 436.2 0C407 0 378 0 349 0C320 0 291 0 262 0C233 0 204 0 174.8 0C145.7 0 116.3 0 87.2 0C58 0 29 0 14.5 0L0 0Z" fill="#dde4e9"></path><path d="M0 33L14.5 34.8C29 36.7 58 40.3 87.2 43.2C116.3 46 145.7 48 174.8 49C204 50 233 50 262 49C291 48 320 46 349 46.8C378 47.7 407 51.3 436.2 54C465.3 56.7 494.7 58.3 523.8 55.7C553 53 582 46 611 46C640 46 669 53 698 52C727 51 756 42 785.2 40.3C814.3 38.7 843.7 44.3 872.8 44.3C902 44.3 931 38.7 945.5 35.8L960 33L960 15L945.5 15C931 15 902 15 872.8 15C843.7 15 814.3 15 785.2 16C756 17 727 19 698 19C669 19 640 17 611 17C582 17 553 19 523.8 20.8C494.7 22.7 465.3 24.3 436.2 22.5C407 20.7 378 15.3 349 14.5C320 13.7 291 17.3 262 18.2C233 19 204 17 174.8 15.2C145.7 13.3 116.3 11.7 87.2 10.8C58 10 29 10 14.5 10L0 10Z" fill="#d7dee3"></path><path d="M0 50L14.5 54.5C29 59 58 68 87.2 70.7C116.3 73.3 145.7 69.7 174.8 69.7C204 69.7 233 73.3 262 74.2C291 75 320 73 349 74.7C378 76.3 407 81.7 436.2 82.7C465.3 83.7 494.7 80.3 523.8 76.8C553 73.3 582 69.7 611 70.5C640 71.3 669 76.7 698 73C727 69.3 756 56.7 785.2 55.8C814.3 55 843.7 66 872.8 66C902 66 931 55 945.5 49.5L960 44L960 31L945.5 33.8C931 36.7 902 42.3 872.8 42.3C843.7 42.3 814.3 36.7 785.2 38.3C756 40 727 49 698 50C669 51 640 44 611 44C582 44 553 51 523.8 53.7C494.7 56.3 465.3 54.7 436.2 52C407 49.3 378 45.7 349 44.8C320 44 291 46 262 47C233 48 204 48 174.8 47C145.7 46 116.3 44 87.2 41.2C58 38.3 29 34.7 14.5 32.8L0 31Z" fill="#d0d8de"></path><path d="M0 66L14.5 69.5C29 73 58 80 87.2 85.3C116.3 90.7 145.7 94.3 174.8 97.2C204 100 233 102 262 99.3C291 96.7 320 89.3 349 90.2C378 91 407 100 436.2 103.7C465.3 107.3 494.7 105.7 523.8 101.2C553 96.7 582 89.3 611 90.2C640 91 669 100 698 96.3C727 92.7 756 76.3 785.2 72.7C814.3 69 843.7 78 872.8 80.8C902 83.7 931 80.3 945.5 78.7L960 77L960 42L945.5 47.5C931 53 902 64 872.8 64C843.7 64 814.3 53 785.2 53.8C756 54.7 727 67.3 698 71C669 74.7 640 69.3 611 68.5C582 67.7 553 71.3 523.8 74.8C494.7 78.3 465.3 81.7 436.2 80.7C407 79.7 378 74.3 349 72.7C320 71 291 73 262 72.2C233 71.3 204 67.7 174.8 67.7C145.7 67.7 116.3 71.3 87.2 68.7C58 66 29 57 14.5 52.5L0 48Z" fill="#cad1d9"></path><path d="M0 93L14.5 96.5C29 100 58 107 87.2 114.2C116.3 121.3 145.7 128.7 174.8 128.7C204 128.7 233 121.3 262 116C291 110.7 320 107.3 349 108.3C378 109.3 407 114.7 436.2 117.3C465.3 120 494.7 120 523.8 117.3C553 114.7 582 109.3 611 110.2C640 111 669 118 698 118C727 118 756 111 785.2 111C814.3 111 843.7 118 872.8 119.7C902 121.3 931 117.7 945.5 115.8L960 114L960 75L945.5 76.7C931 78.3 902 81.7 872.8 78.8C843.7 76 814.3 67 785.2 70.7C756 74.3 727 90.7 698 94.3C669 98 640 89 611 88.2C582 87.3 553 94.7 523.8 99.2C494.7 103.7 465.3 105.3 436.2 101.7C407 98 378 89 349 88.2C320 87.3 291 94.7 262 97.3C233 100 204 98 174.8 95.2C145.7 92.3 116.3 88.7 87.2 83.3C58 78 29 71 14.5 67.5L0 64Z" fill="#c4cbd3"></path><path d="M0 141L14.5 142.8C29 144.7 58 148.3 87.2 153.8C116.3 159.3 145.7 166.7 174.8 171.2C204 175.7 233 177.3 262 171C291 164.7 320 150.3 349 148.5C378 146.7 407 157.3 436.2 159.2C465.3 161 494.7 154 523.8 150.5C553 147 582 147 611 147C640 147 669 147 698 152.3C727 157.7 756 168.3 785.2 169.2C814.3 170 843.7 161 872.8 157.5C902 154 931 156 945.5 157L960 158L960 112L945.5 113.8C931 115.7 902 119.3 872.8 117.7C843.7 116 814.3 109 785.2 109C756 109 727 116 698 116C669 116 640 109 611 108.2C582 107.3 553 112.7 523.8 115.3C494.7 118 465.3 118 436.2 115.3C407 112.7 378 107.3 349 106.3C320 105.3 291 108.7 262 114C233 119.3 204 126.7 174.8 126.7C145.7 126.7 116.3 119.3 87.2 112.2C58 105 29 98 14.5 94.5L0 91Z" fill="#bec5ce"></path><path d="M0 158L14.5 160.7C29 163.3 58 168.7 87.2 179.3C116.3 190 145.7 206 174.8 212.3C204 218.7 233 215.3 262 204.7C291 194 320 176 349 175C378 174 407 190 436.2 191.7C465.3 193.3 494.7 180.7 523.8 173.5C553 166.3 582 164.7 611 169.2C640 173.7 669 184.3 698 193.3C727 202.3 756 209.7 785.2 210.7C814.3 211.7 843.7 206.3 872.8 204.5C902 202.7 931 204.3 945.5 205.2L960 206L960 156L945.5 155C931 154 902 152 872.8 155.5C843.7 159 814.3 168 785.2 167.2C756 166.3 727 155.7 698 150.3C669 145 640 145 611 145C582 145 553 145 523.8 148.5C494.7 152 465.3 159 436.2 157.2C407 155.3 378 144.7 349 146.5C320 148.3 291 162.7 262 169C233 175.3 204 173.7 174.8 169.2C145.7 164.7 116.3 157.3 87.2 151.8C58 146.3 29 142.7 14.5 140.8L0 139Z" fill="#b8bfc8"></path><path d="M0 249L14.5 253.5C29 258 58 267 87.2 267C116.3 267 145.7 258 174.8 260.8C204 263.7 233 278.3 262 280.2C291 282 320 271 349 262C378 253 407 246 436.2 247C465.3 248 494.7 257 523.8 253.3C553 249.7 582 233.3 611 227C640 220.7 669 224.3 698 229.7C727 235 756 242 785.2 252.8C814.3 263.7 843.7 278.3 872.8 286.5C902 294.7 931 296.3 945.5 297.2L960 298L960 204L945.5 203.2C931 202.3 902 200.7 872.8 202.5C843.7 204.3 814.3 209.7 785.2 208.7C756 207.7 727 200.3 698 191.3C669 182.3 640 171.7 611 167.2C582 162.7 553 164.3 523.8 171.5C494.7 178.7 465.3 191.3 436.2 189.7C407 188 378 172 349 173C320 174 291 192 262 202.7C233 213.3 204 216.7 174.8 210.3C145.7 204 116.3 188 87.2 177.3C58 166.7 29 161.3 14.5 158.7L0 156Z" fill="#b2b9c3"></path><path d="M0 384L14.5 386.8C29 389.7 58 395.3 87.2 383.7C116.3 372 145.7 343 174.8 334.8C204 326.7 233 339.3 262 341.2C291 343 320 334 349 343.8C378 353.7 407 382.3 436.2 389.5C465.3 396.7 494.7 382.3 523.8 373.3C553 364.3 582 360.7 611 352.7C640 344.7 669 332.3 698 342.3C727 352.3 756 384.7 785.2 398.2C814.3 411.7 843.7 406.3 872.8 400C902 393.7 931 386.3 945.5 382.7L960 379L960 296L945.5 295.2C931 294.3 902 292.7 872.8 284.5C843.7 276.3 814.3 261.7 785.2 250.8C756 240 727 233 698 227.7C669 222.3 640 218.7 611 225C582 231.3 553 247.7 523.8 251.3C494.7 255 465.3 246 436.2 245C407 244 378 251 349 260C320 269 291 280 262 278.2C233 276.3 204 261.7 174.8 258.8C145.7 256 116.3 265 87.2 265C58 265 29 256 14.5 251.5L0 247Z" fill="#adb3be"></path><path d="M0 433L14.5 433C29 433 58 433 87.2 422.2C116.3 411.3 145.7 389.7 174.8 384.3C204 379 233 390 262 393.7C291 397.3 320 393.7 349 399C378 404.3 407 418.7 436.2 421.3C465.3 424 494.7 415 523.8 412.3C553 409.7 582 413.3 611 405.2C640 397 669 377 698 385C727 393 756 429 785.2 445.3C814.3 461.7 843.7 458.3 872.8 451.2C902 444 931 433 945.5 427.5L960 422L960 377L945.5 380.7C931 384.3 902 391.7 872.8 398C843.7 404.3 814.3 409.7 785.2 396.2C756 382.7 727 350.3 698 340.3C669 330.3 640 342.7 611 350.7C582 358.7 553 362.3 523.8 371.3C494.7 380.3 465.3 394.7 436.2 387.5C407 380.3 378 351.7 349 341.8C320 332 291 341 262 339.2C233 337.3 204 324.7 174.8 332.8C145.7 341 116.3 370 87.2 381.7C58 393.3 29 387.7 14.5 384.8L0 382Z" fill="#a7acb9"></path><path d="M0 498L14.5 502.5C29 507 58 516 87.2 516.8C116.3 517.7 145.7 510.3 174.8 507.7C204 505 233 507 262 510.7C291 514.3 320 519.7 349 521.3C378 523 407 521 436.2 520C465.3 519 494.7 519 523.8 514.5C553 510 582 501 611 501C640 501 669 510 698 514.5C727 519 756 519 785.2 518.2C814.3 517.3 843.7 515.7 872.8 516.7C902 517.7 931 521.3 945.5 523.2L960 525L960 420L945.5 425.5C931 431 902 442 872.8 449.2C843.7 456.3 814.3 459.7 785.2 443.3C756 427 727 391 698 383C669 375 640 395 611 403.2C582 411.3 553 407.7 523.8 410.3C494.7 413 465.3 422 436.2 419.3C407 416.7 378 402.3 349 397C320 391.7 291 395.3 262 391.7C233 388 204 377 174.8 382.3C145.7 387.7 116.3 409.3 87.2 420.2C58 431 29 431 14.5 431L0 431Z" fill="#a2a6b3"></path><path d="M0 541L14.5 541C29 541 58 541 87.2 541C116.3 541 145.7 541 174.8 541C204 541 233 541 262 541C291 541 320 541 349 541C378 541 407 541 436.2 541C465.3 541 494.7 541 523.8 541C553 541 582 541 611 541C640 541 669 541 698 541C727 541 756 541 785.2 541C814.3 541 843.7 541 872.8 541C902 541 931 541 945.5 541L960 541L960 523L945.5 521.2C931 519.3 902 515.7 872.8 514.7C843.7 513.7 814.3 515.3 785.2 516.2C756 517 727 517 698 512.5C669 508 640 499 611 499C582 499 553 508 523.8 512.5C494.7 517 465.3 517 436.2 518C407 519 378 521 349 519.3C320 517.7 291 512.3 262 508.7C233 505 204 503 174.8 505.7C145.7 508.3 116.3 515.7 87.2 514.8C58 514 29 505 14.5 500.5L0 496Z" fill="#9da0ae"></path></svg>